<svg width="190" height="190" viewBox="0 0 190 190" fill="none" xmlns="http://www.w3.org/2000/svg">
<rect width="190" height="190" rx="33" fill="#0D9488"/>
<path d="M96.8795 92.8799H78.7157C78.4647 92.5023 78.3393 91.9989 78.3393 91.3697C78.3393 90.6775 78.5589 90.0482 78.998 89.4819L85.3036 88.7268V63.8085H51.2347V88.538H56.6933C57.6971 88.538 58.1991 88.9785 58.1991 89.8595C58.1991 90.2999 58.0422 91.055 57.7285 92.1248L57.5403 92.8799H39.3765C39.1255 92.5023 39 91.9989 39 91.3697C39 90.6775 39.2196 90.0482 39.6588 89.4819L45.9644 88.7268V36.3418H40.5058C39.5019 36.3418 39 35.9013 39 35.0204C39 34.5799 39.1569 33.8248 39.4706 32.7551L39.6588 32H57.8226C58.0736 32.3775 58.1991 32.8809 58.1991 33.5102C58.1991 34.2024 57.9795 34.8316 57.5403 35.3979L51.2347 36.153V59.4667H85.3036V36.3418H79.8451C78.8412 36.3418 78.3393 35.9013 78.3393 35.0204C78.3393 34.5799 78.4961 33.8248 78.8098 32.7551L78.998 32H97.1619C97.4128 32.3775 97.5383 32.8809 97.5383 33.5102C97.5383 34.2024 97.3187 34.8316 96.8795 35.3979L90.574 36.153V88.538H96.0325C97.0364 88.538 97.5383 88.9785 97.5383 89.8595C97.5383 90.2999 97.3815 91.055 97.0678 92.1248L96.8795 92.8799Z" fill="white"/>
<path d="M96.4302 124.306C101.226 124.306 105.388 123.141 108.918 120.81C112.515 118.412 115.279 115.082 117.211 110.819C119.209 106.49 120.208 101.461 120.208 95.7334C120.208 90.0055 119.209 85.0102 117.211 80.7476C115.279 76.485 112.515 73.1881 108.918 70.857C105.388 68.4592 101.226 67.2604 96.4302 67.2604C91.6347 67.2604 87.4387 68.4592 83.8421 70.857C80.3121 73.1881 77.5481 76.485 75.55 80.7476C73.6185 85.0102 72.6527 90.0055 72.6527 95.7334C72.6527 101.528 73.6185 106.556 75.55 110.819C77.5481 115.082 80.3121 118.412 83.8421 120.81C87.4387 123.141 91.6347 124.306 96.4302 124.306ZM96.4302 129.002C90.5025 129.002 85.3074 127.637 80.845 124.906C76.3825 122.108 72.9191 118.245 70.4548 113.317C67.9905 108.321 66.7583 102.46 66.7583 95.7334C66.7583 89.0731 67.9905 83.2785 70.4548 78.3499C72.9191 73.3546 76.3825 69.4916 80.845 66.7608C85.3074 63.9635 90.5025 62.5648 96.4302 62.5648C102.358 62.5648 107.553 63.9635 112.015 66.7608C116.478 69.4916 119.941 73.3546 122.406 78.3499C124.87 83.2785 126.102 89.0731 126.102 95.7334C126.102 102.46 124.87 108.321 122.406 113.317C119.941 118.245 116.478 122.108 112.015 124.906C107.553 127.637 102.358 129.002 96.4302 129.002Z" fill="#00453F"/>
<path d="M121.088 97.5625C126.749 97.5625 129.047 97.0311 133.976 99.4287C134.375 99.895 135 99 138 99C140 99 140.8 100.034 141 100.5L139.071 116.146C138.672 116.412 138.139 116.545 137.473 116.545C136.74 116.545 136.074 116.312 135.475 115.846L132.776 104.557C129.047 102.958 125.151 102.158 121.088 102.158C116.359 102.158 112.729 103.124 110.198 105.056C107.667 106.921 106.401 109.651 106.401 113.248C106.401 115.379 106.868 117.211 107.801 118.743C108.8 120.275 110.498 121.707 112.896 123.039C115.36 124.371 118.757 125.769 123.086 127.234C130.346 129.765 135.508 132.463 138.571 135.327C141.635 138.191 143.167 141.821 143.167 146.217C143.167 151.745 141.102 156.108 136.973 159.305C132.843 162.435 127.115 164 119.789 164C116.392 164 113.128 163.667 109.998 163.001C106.868 162.268 104.237 161.269 102.105 160.004C101.706 159.538 101.34 159.038 101.007 158.505C100.674 157.972 100.408 157.473 100.208 157.007L100.008 144.519C100.407 144.252 100.94 144.119 101.606 144.119C102.339 144.119 103.005 144.352 103.604 144.818L106.302 156.707C108.167 157.506 110.232 158.139 112.496 158.605C114.827 159.072 117.258 159.305 119.789 159.305C125.317 159.305 129.613 158.172 132.677 155.907C135.807 153.576 137.372 150.346 137.372 146.217C137.372 143.02 136.24 140.422 133.976 138.424C131.711 136.359 127.715 134.361 121.987 132.43C116.726 130.698 112.529 128.933 109.398 127.135C106.335 125.27 104.104 123.239 102.705 121.041C101.373 118.777 100.707 116.179 100.707 113.248C100.707 108.32 102.505 104.49 106.102 101.759C109.698 98.9615 114.694 97.5625 121.088 97.5625ZM137 101C135.895 101 135 101.895 135 103C135 104.105 135.895 105 137 105C138.105 105 139 104.105 139 103C139 101.895 138.105 101 137 101Z" fill="white"/>
</svg>
