<svg width="60" height="23" viewBox="0 0 60 23" fill="none" xmlns="http://www.w3.org/2000/svg">
<path d="M20.7637 22.3957H14.2476C14.1576 22.2593 14.1125 22.0773 14.1125 21.85C14.1125 21.5998 14.1913 21.3724 14.3489 21.1678L16.6109 20.8949V11.8903H4.38907V20.8267H6.34727C6.7074 20.8267 6.88746 20.9859 6.88746 21.3042C6.88746 21.4634 6.83119 21.7363 6.71865 22.1228L6.65113 22.3957H0.135048C0.0450161 22.2593 0 22.0773 0 21.85C0 21.5998 0.0787781 21.3724 0.236334 21.1678L2.49839 20.8949V1.96468H0.540193C0.180064 1.96468 0 1.80551 0 1.48716C0 1.32799 0.0562701 1.05512 0.16881 0.66856L0.236334 0.395691H6.75241C6.84244 0.532125 6.88746 0.714037 6.88746 0.941428C6.88746 1.19156 6.80868 1.41895 6.65113 1.6236L4.38907 1.89647V10.3213H16.6109V1.96468H14.6527C14.2926 1.96468 14.1125 1.80551 14.1125 1.48716C14.1125 1.32799 14.1688 1.05512 14.2814 0.66856L14.3489 0.395691H20.865C20.955 0.532125 21 0.714037 21 0.941428C21 1.19156 20.9212 1.41895 20.7637 1.6236L18.5016 1.89647V20.8267H20.4598C20.8199 20.8267 21 20.9859 21 21.3042C21 21.4634 20.9437 21.7363 20.8312 22.1228L20.7637 22.3957Z" fill="#494949"/>
<path d="M33 20.8408C34.6162 20.8408 36.0191 20.4548 37.2088 19.6829C38.4209 18.8889 39.3524 17.7862 40.0034 16.3746C40.6768 14.9411 41.0135 13.2759 41.0135 11.3792C41.0135 9.48241 40.6768 7.82827 40.0034 6.41674C39.3524 5.00522 38.4209 3.91349 37.2088 3.14156C36.0191 2.34757 34.6162 1.95058 33 1.95058C31.3838 1.95058 29.9697 2.34757 28.7576 3.14156C27.5679 3.91349 26.6364 5.00522 25.963 6.41674C25.312 7.82827 24.9865 9.48241 24.9865 11.3792C24.9865 13.2979 25.312 14.9631 25.963 16.3746C26.6364 17.7862 27.5679 18.8889 28.7576 19.6829C29.9697 20.4548 31.3838 20.8408 33 20.8408ZM33 22.3957C31.0022 22.3957 29.2514 21.9436 27.7475 21.0393C26.2435 20.113 25.0763 18.8338 24.2458 17.2017C23.4153 15.5476 23 13.6067 23 11.3792C23 9.17364 23.4153 7.25484 24.2458 5.62276C25.0763 3.96862 26.2435 2.68943 27.7475 1.78516C29.2514 0.858849 31.0022 0.395691 33 0.395691C34.9978 0.395691 36.7486 0.858849 38.2525 1.78516C39.7565 2.68943 40.9237 3.96862 41.7542 5.62276C42.5847 7.25484 43 9.17364 43 11.3792C43 13.6067 42.5847 15.5476 41.7542 17.2017C40.9237 18.8338 39.7565 20.113 38.2525 21.0393C36.7486 21.9436 34.9978 22.3957 33 22.3957Z" fill="#0D9488"/>
<path d="M52.0605 0.0167994C53.9566 0.0167994 54.7263 -0.161228 56.377 0.641799C56.5108 0.797934 56.7201 0.498297 57.7246 0.498245C58.3941 0.498245 58.6624 0.843935 58.7295 1.0002L58.084 6.24043C57.9501 6.32966 57.7709 6.37422 57.5479 6.37422C57.3026 6.37416 57.0796 6.29593 56.8789 6.13985L55.9756 2.3586C54.7264 1.82325 53.4213 1.55586 52.0605 1.55586C50.4768 1.55587 49.2607 1.87967 48.4131 2.52657C47.5657 3.1511 47.1417 4.06547 47.1416 5.26973C47.1416 5.98355 47.2981 6.59749 47.6104 7.11055C47.9449 7.62348 48.5136 8.10299 49.3164 8.54903C50.1417 8.99513 51.2797 9.46359 52.7295 9.9543C55.161 10.802 56.8899 11.706 57.916 12.6652C58.942 13.6244 59.455 14.8396 59.4551 16.3117C59.4551 18.1632 58.7639 19.6248 57.3809 20.6955C55.9979 21.7438 54.0795 22.2677 51.626 22.2678C50.4884 22.2678 49.395 22.1568 48.3467 21.9338C47.2983 21.6884 46.4169 21.3537 45.7031 20.9299C45.5693 20.7738 45.4465 20.6063 45.335 20.4279C45.2235 20.2496 45.1343 20.0821 45.0674 19.926L45 15.7434C45.1338 15.6541 45.3131 15.6096 45.5361 15.6096C45.7814 15.6096 46.0044 15.6879 46.2051 15.8439L47.1084 19.8254C47.7329 20.093 48.4243 20.305 49.1826 20.4611C49.9634 20.6173 50.7783 20.6955 51.626 20.6955C53.4773 20.6955 54.9163 20.3162 55.9424 19.5578C56.9907 18.7771 57.5146 17.6947 57.5146 16.3117C57.5146 15.2411 57.1353 14.3715 56.377 13.7023C55.6185 13.0108 54.2797 12.3414 52.3613 11.6945C50.5993 11.1146 49.1939 10.5233 48.1455 9.9211C47.1196 9.29661 46.3727 8.61607 45.9043 7.88008C45.4582 7.12164 45.2344 6.25124 45.2344 5.26973C45.2344 3.61915 45.8375 2.33661 47.042 1.42207C48.2465 0.485329 49.9193 0.0168116 52.0605 0.0167994ZM57.3906 1.16817C57.0207 1.16817 56.7207 1.46814 56.7207 1.83809C56.7209 2.20787 57.0208 2.50801 57.3906 2.50801C57.7603 2.50782 58.0604 2.20775 58.0605 1.83809C58.0605 1.46826 57.7604 1.16836 57.3906 1.16817Z" fill="#494949"/>
</svg>
